<svg width="71" height="90" viewBox="0 0 71 90" fill="none" xmlns="http://www.w3.org/2000/svg">
<g clip-path="url(#clip0_329_86)">
<path d="M0.251774 71.25V18.75" stroke="black" stroke-width="2" stroke-linecap="round"/>
<path d="M70.7482 18.75V71.25" stroke="black" stroke-width="2" stroke-linecap="round"/>
<path d="M35.5 36.25C54.9672 36.25 70.7482 28.415 70.7482 18.75C70.7482 9.08501 54.9672 1.25 35.5 1.25C16.0329 1.25 0.251774 9.08501 0.251774 18.75C0.251774 28.415 16.0329 36.25 35.5 36.25Z" stroke="black" stroke-width="2"/>
<path d="M70.7482 45C70.7482 54.6648 54.9672 62.5 35.5 62.5C16.0329 62.5 0.251774 54.6648 0.251774 45" stroke="black" stroke-width="2"/>
<path d="M70.7482 71.25C70.7482 80.9148 54.9672 88.75 35.5 88.75C16.0329 88.75 0.251774 80.9148 0.251774 71.25" stroke="black" stroke-width="2"/>
</g>
<defs>
<clipPath id="clip0_329_86">
<rect width="71" height="90" fill="white"/>
</clipPath>
</defs>
</svg>
