<svg width="58" height="86" viewBox="0 0 58 86" fill="none" xmlns="http://www.w3.org/2000/svg">
<path d="M29 1H15C7.26803 1 1 7.26803 1 15C1 22.732 7.26803 29 15 29M29 1V29M29 1H43C50.7322 1 57 7.26803 57 15C57 22.732 50.7322 29 43 29M15 29H29M15 29C7.26803 29 1 35.2678 1 43C1 50.7322 7.26803 57 15 57M29 29H43M29 29V57M43 29C50.7322 29 57 35.2678 57 43C57 50.7322 50.7322 57 43 57C35.2678 57 29 50.7322 29 43C29 35.2678 35.2678 29 43 29ZM29 57H15M29 57V71C29 78.7322 22.7322 85 15 85C7.26803 85 1 78.7322 1 71C1 63.2678 7.26803 57 15 57" stroke="black" stroke-width="2" stroke-linecap="round" stroke-linejoin="round"/>
</svg>
