<svg width="104" height="79" viewBox="0 0 104 79" fill="none" xmlns="http://www.w3.org/2000/svg">
<g clip-path="url(#clip0_329_71)">
<path d="M8.66665 64.1875C9.35008 64.1875 9.90475 63.6345 9.90475 62.9531V4.9375C9.90475 3.46119 10.9002 2.46875 12.3809 2.46875H91.619C93.0305 2.46875 94.0952 3.62413 94.0952 5.15722V62.9531C94.0952 63.6345 94.6499 64.1875 95.3333 64.1875C96.0168 64.1875 96.5714 63.6345 96.5714 62.9531V5.15722C96.5714 2.26384 94.3973 0 91.619 0H12.3809C9.51103 0 7.42856 2.07622 7.42856 4.9375V62.9531C7.42856 63.6345 7.98323 64.1875 8.66665 64.1875Z" fill="black"/>
<path d="M16.0952 7.40625C15.4118 7.40625 14.8571 7.95925 14.8571 8.64062V62.9531C14.8571 63.6345 15.4118 64.1875 16.0952 64.1875H87.9048C88.5882 64.1875 89.1429 63.6345 89.1429 62.9531V8.64062C89.1429 7.95925 88.5882 7.40625 87.9048 7.40625H16.0952ZM86.6667 61.7188H17.3333V9.875H86.6667V61.7188Z" fill="black"/>
<path d="M102.762 69.125H1.2381C0.554667 69.125 0 69.678 0 70.3594V73.2602C0 76.2177 3.48648 79 6.19048 79H97.8095C100.645 79 104 75.6548 104 72.8281V70.3594C104 69.678 103.445 69.125 102.762 69.125ZM101.524 72.8281C101.524 74.2822 99.268 76.5312 97.8095 76.5312H6.19048C4.628 76.5312 2.47619 74.6352 2.47619 73.2602V71.5938H101.524V72.8281Z" fill="black"/>
</g>
<defs>
<clipPath id="clip0_329_71">
<rect width="104" height="79" fill="white"/>
</clipPath>
</defs>
</svg>
