<svg width="30" height="30" viewBox="0 0 30 30" fill="none" xmlns="http://www.w3.org/2000/svg">
<path fill-rule="evenodd" clip-rule="evenodd" d="M15 1.5625C11.8081 1.56086 8.71983 2.69549 6.28822 4.76321C3.85661 6.83093 2.24044 9.6967 1.72911 12.8474C1.21779 15.9981 1.84469 19.2279 3.49758 21.9585C5.15047 24.6891 7.72139 26.7421 10.75 27.75C11.425 27.875 11.6687 27.4625 11.6687 27.125C11.6687 26.7875 11.6687 25.9625 11.6687 24.8438C7.91873 25.6563 7.14373 23.0438 7.14373 23.0438C6.89568 22.2171 6.35601 21.5087 5.62498 21.05C4.40623 20.2188 5.71873 20.2313 5.71873 20.2313C6.14445 20.2908 6.55095 20.4468 6.90729 20.6872C7.26362 20.9277 7.56039 21.2463 7.77497 21.6188C8.97497 23.675 10.9 23.0813 11.6875 22.7375C11.7496 22.0547 12.0532 21.4165 12.5437 20.9375C9.55623 20.6 6.41873 19.45 6.41873 14.3C6.39892 12.964 6.89603 11.672 7.80623 10.6938C7.3927 9.53531 7.43968 8.26231 7.93748 7.1375C7.93748 7.1375 9.06248 6.775 11.6312 8.5125C13.8327 7.91249 16.1547 7.91249 18.3562 8.5125C20.925 6.775 22.05 7.1375 22.05 7.1375C22.544 8.26318 22.5909 9.53472 22.1812 10.6938C23.0897 11.6726 23.5846 12.9647 23.5625 14.3C23.5625 19.4625 20.4375 20.5938 17.4312 20.9313C17.7538 21.2581 18.0022 21.6505 18.1597 22.0819C18.3171 22.5133 18.3799 22.9735 18.3437 23.4313C18.3437 25.225 18.3437 26.675 18.3437 27.1188C18.3437 27.5625 18.5875 27.8938 19.2687 27.7438C22.2942 26.7319 24.8611 24.6767 26.51 21.9458C28.159 19.2148 28.7826 15.9862 28.2693 12.8376C27.7559 9.689 26.1391 6.82573 23.708 4.76C21.2769 2.69428 18.1902 1.56086 15 1.5625Z" stroke="black" stroke-linecap="round" stroke-linejoin="round"/>
</svg>
