<svg width="30" height="30" viewBox="0 0 30 30" fill="none" xmlns="http://www.w3.org/2000/svg">
<path d="M19.6606 4.85474C21.4536 3.05487 24.0761 3.01707 25.528 4.47455C26.9825 5.93476 26.9434 8.57381 25.1492 10.3749L22.1195 13.4164C21.7541 13.7833 21.7552 14.3769 22.122 14.7423C22.4889 15.1077 23.0825 15.1065 23.4479 14.7397L26.4776 11.6981C28.8667 9.29976 29.1667 5.4706 26.8564 3.15129C24.5432 0.829226 20.7226 1.13187 18.3322 3.53149L12.2727 9.61456C9.8836 12.0129 9.58365 15.8422 11.894 18.1614C12.2594 18.5283 12.853 18.5294 13.2197 18.164C13.5866 17.7987 13.5877 17.205 13.2224 16.8382C11.7678 15.378 11.807 12.7389 13.6011 10.9378L19.6606 4.85474Z" fill="black"/>
<path d="M18.1064 11.8384C17.741 11.4715 17.1474 11.4704 16.7805 11.8358C16.4138 12.2012 16.4126 12.7948 16.778 13.1616C18.2325 14.6218 18.1934 17.2608 16.3993 19.0619L10.3397 25.1451C8.54681 26.9449 5.92421 26.9828 4.47239 25.5253C3.0178 24.0651 3.05699 21.4259 4.85111 19.6248L7.88091 16.5833C8.24632 16.2164 8.24518 15.6229 7.87835 15.2574C7.51153 14.8921 6.91793 14.8932 6.55253 15.2601L3.52273 18.3016C1.1336 20.7001 0.833645 24.5292 3.14399 26.8486C5.45709 29.1706 9.27776 28.8679 11.6681 26.4683L17.7276 20.3852C20.1168 17.9868 20.4167 14.1577 18.1064 11.8384Z" fill="black"/>
</svg>
