<svg width="58" height="94" viewBox="0 0 58 94" fill="none" xmlns="http://www.w3.org/2000/svg">
<g clip-path="url(#clip0_421_2)">
<path d="M16 4.66665C16 2.27343 17.9401 0.333313 20.3333 0.333313H37.6667C40.06 0.333313 42 2.27343 42 4.66665V8.99998C42 11.3932 40.06 13.3333 37.6667 13.3333H20.3333C17.9401 13.3333 16 11.3932 16 8.99998V4.66665Z" fill="black"/>
<path d="M48.5 3.58331H9.5C5.31185 3.58331 1.91667 6.97849 1.91667 11.1666V84.8333C1.91667 89.0215 5.31185 92.4166 9.5 92.4166H48.5C52.6882 92.4166 56.0833 89.0215 56.0833 84.8333V11.1666C56.0833 6.97849 52.6882 3.58331 48.5 3.58331Z" stroke="black" stroke-width="2"/>
<path d="M16 80.5H42" stroke="black" stroke-width="2" stroke-linecap="round"/>
</g>
<defs>
<clipPath id="clip0_421_2">
<rect width="58" height="94" fill="white"/>
</clipPath>
</defs>
</svg>
