<svg width="30" height="30" viewBox="0 0 30 30" fill="none" xmlns="http://www.w3.org/2000/svg">
<path d="M24.6382 5.2998C25.3364 5.2998 25.8632 5.92481 25.5814 7.0873L22.1637 23.5248C21.9248 24.6936 21.2327 24.9748 20.2772 24.4311L12.1248 18.2873C12.0932 18.2642 12.0674 18.2337 12.0497 18.1983C12.0319 18.163 12.0226 18.1239 12.0226 18.0842C12.0226 18.0445 12.0319 18.0053 12.0497 17.97C12.0674 17.9347 12.0932 17.9042 12.1248 17.8811L21.5389 9.20605C21.9677 8.81855 21.4471 8.63105 20.8836 8.98105L9.06843 16.5873C9.0326 16.6112 8.99192 16.6264 8.94947 16.6318C8.90702 16.6372 8.86392 16.6327 8.82343 16.6186L3.80706 14.9998C2.69231 14.6686 2.69231 13.8873 4.05818 13.3311L24.1298 5.43105C24.289 5.35313 24.4618 5.3085 24.6382 5.2998Z" stroke="black" stroke-linecap="round" stroke-linejoin="round"/>
</svg>
