<svg width="81" height="81" viewBox="0 0 81 81" fill="none" xmlns="http://www.w3.org/2000/svg">
<path d="M51.5189 75.4506C43.9622 77.994 35.7934 78.0746 28.188 75.6808C20.5826 73.287 13.9326 68.5423 9.19479 62.1294C4.45702 55.7164 1.87575 47.9658 1.82238 39.9927C1.76901 32.0197 4.24628 24.2352 8.89777 17.7594C13.5493 11.2836 20.1352 6.45025 27.7078 3.95489C35.2805 1.45953 43.4496 1.43076 51.0397 3.87271C58.6298 6.31467 65.2496 11.1015 69.9466 17.5444C74.6436 23.9873 77.1756 31.7541 77.1784 39.7273C77.0566 42.7835 76.6866 45.8248 76.072 48.8211" stroke="black" stroke-width="2"/>
<path d="M48.3816 68.4484C45.671 71.5281 42.6994 74.3678 39.5 76.9359" stroke="black" stroke-width="2"/>
<path d="M39.5 1.60938C49.6706 10.4954 55.9639 23.0057 57.0358 36.4688C57.2558 38.9127 57.3014 41.3691 57.1722 43.8195" stroke="black" stroke-width="2"/>
<path d="M39.5 1.60938C33.9818 6.41918 29.5485 12.3467 26.4941 18.9991C23.4396 25.6516 21.8335 32.8772 21.7823 40.1972C21.7823 64.7503 32.8161 72.0253 39.4545 76.9359" stroke="black" stroke-width="2"/>
<path d="M6.71704 21.1609H72.4649" stroke="black" stroke-width="2"/>
<path d="M39.5 1.59424V76.936" stroke="black" stroke-width="2"/>
<path d="M7.74768 59.9306H47.1388" stroke="black" stroke-width="2"/>
<path d="M1.82153 40.1972L77.1784 39.2726" stroke="black" stroke-width="2"/>
<path d="M72.192 77.3906L78.9063 70.6613L66.7813 58.5363L73.6774 54.1258C73.7778 54.0664 73.8579 53.9779 73.907 53.872C73.956 53.766 73.9717 53.6477 73.952 53.5326C73.9323 53.4176 73.878 53.3113 73.7965 53.2277C73.715 53.1442 73.61 53.0874 73.4955 53.0648L50.3216 47.6389C50.2259 47.6194 50.1268 47.6239 50.0333 47.6521C49.9398 47.6802 49.8547 47.7311 49.7856 47.8001C49.7166 47.8692 49.6657 47.9543 49.6375 48.0478C49.6094 48.1414 49.6049 48.2404 49.6244 48.3361L54.6563 71.9495C54.6804 72.0643 54.7382 72.1693 54.8223 72.2512C54.9063 72.333 55.0128 72.388 55.1282 72.4091C55.2436 72.4302 55.3626 72.4165 55.4702 72.3698C55.5778 72.323 55.6691 72.2453 55.7324 72.1466L60.067 65.2656L72.192 77.3906Z" stroke="black" stroke-width="2"/>
</svg>
